<mxfile host="app.diagrams.net" modified="2024-05-23T19:22:11.825Z" agent="Mozilla/5.0 (Windows NT 10.0; Win64; x64) AppleWebKit/537.36 (KHTML, like Gecko) Chrome/124.0.0.0 Safari/537.36" version="24.4.6" etag="-mpi1VbW2129v-wia1qN" type="github">
  <diagram name="Page-1" id="rma_2XjRL6UwtK8_deQ-">
    <mxGraphModel>
      <root>
        <mxCell id="0" />
        <mxCell id="1" parent="0" />
      </root>
    </mxGraphModel>
  </diagram>
</mxfile>
